<svg width="13" height="11" viewBox="0 0 13 11" fill="none" xmlns="http://www.w3.org/2000/svg">
<path d="M0.816667 0.414167L1.23083 0L11.0017 9.77083L10.5875 10.185L8.63917 8.23083C7.84 8.56333 6.965 8.75 6.04333 8.75C3.38333 8.75 1.085 7.20417 0 4.95833C0.565833 3.79167 1.4525 2.8175 2.54333 2.14667L0.816667 0.414167ZM6.04333 8.16667C6.79583 8.16667 7.51917 8.0325 8.18417 7.78167L7.53083 7.1225C7.105 7.41417 6.5975 7.58333 6.04333 7.58333C4.585 7.58333 3.41833 6.41667 3.41833 4.95833C3.41833 4.40417 3.5875 3.89667 3.87917 3.47083L2.975 2.5725C1.99829 3.14153 1.19553 3.96648 0.653333 4.95833C1.69167 6.87167 3.71 8.16667 6.04333 8.16667ZM11.4333 4.95833C10.395 3.045 8.37667 1.75 6.04333 1.75C5.3725 1.75 4.71917 1.86083 4.1125 2.05917L3.6575 1.60417C4.39833 1.31833 5.20333 1.16667 6.04333 1.16667C8.70333 1.16667 11.0017 2.7125 12.0867 4.95833C11.5566 6.05839 10.7355 6.99241 9.7125 7.65917L9.2925 7.23333C10.185 6.67333 10.9258 5.89167 11.4333 4.95833ZM6.04333 2.33333C7.50167 2.33333 8.66833 3.5 8.66833 4.95833C8.66833 5.43667 8.54 5.88 8.31833 6.265L7.88667 5.83333C8.015 5.565 8.085 5.27333 8.085 4.95833C8.085 4.41685 7.8699 3.89754 7.48701 3.51466C7.10412 3.13177 6.58482 2.91667 6.04333 2.91667C5.72833 2.91667 5.43667 2.98667 5.16833 3.115L4.73667 2.68333C5.12167 2.46167 5.565 2.33333 6.04333 2.33333ZM4.00167 4.95833C4.00167 5.49982 4.21677 6.01912 4.59966 6.40201C4.98254 6.7849 5.50185 7 6.04333 7C6.43417 7 6.79583 6.88917 7.105 6.70833L4.29333 3.89667C4.1125 4.20583 4.00167 4.5675 4.00167 4.95833Z" fill="black"/>
</svg>
