<svg width="14" height="14" viewBox="0 0 14 14" fill="none" xmlns="http://www.w3.org/2000/svg">
<path d="M12.4935 8.9596C12.4242 9.00858 10.987 10.5538 10.987 11.6382C10.987 12.7816 11.7018 13.5117 12.4935 13.5515C13.1759 13.5852 14 12.8696 14 11.6382C14 10.4902 12.5628 9.00858 12.4935 8.9596ZM4.64909 13.5515C4.93382 13.8408 5.31195 14 5.71419 14C6.11643 14 6.49457 13.8408 6.7793 13.5515L12.0521 8.19428L11.5195 7.6532L5.71419 1.75488L3.98698 0L2.92188 1.08216L4.64909 2.83704L0.441407 7.11212C0.156677 7.40141 0 7.7856 0 8.19428C0 8.60296 0.156677 8.98715 0.441407 9.27644L4.64909 13.5515ZM5.71419 3.9192L9.92188 8.19428H1.50651L5.71419 3.9192Z" fill="black" fill-opacity="0.6"/>
</svg>
