<svg width="14" height="15" viewBox="0 0 14 15" fill="none" xmlns="http://www.w3.org/2000/svg">
<path d="M9.21973 0.754974L12.413 3.36065L6.09676 11.1013C5.7476 11.5292 5.11766 11.593 4.68976 11.2438L3.04606 9.90259C2.61816 9.55342 2.55433 8.92349 2.90349 8.49558L9.21973 0.754974Z" fill="#5E4C5E"/>
<path d="M1.69509 13.4871C1.54534 13.5609 1.37649 13.4295 1.41109 13.2662L2.05636 10.2212C2.08698 10.0767 2.25824 10.0141 2.37481 10.1048L4.52211 11.775C4.63868 11.8657 4.62015 12.0471 4.48765 12.1123L1.69509 13.4871Z" fill="#5E4C5E"/>
<path d="M12.8455 2.48759C12.876 2.37506 12.8361 2.25525 12.7439 2.18232L10.3728 0.306487C10.2806 0.233552 10.1548 0.222308 10.0524 0.277782L9.55079 0.549306L12.6969 3.03821L12.8455 2.48759Z" fill="#5E4C5E"/>
<path d="M12.8574 1.47256C12.8751 1.40832 12.8526 1.33977 12.8001 1.29788L11.4494 0.220509C11.3969 0.178619 11.3251 0.171904 11.2664 0.203367L10.9792 0.35737L12.7712 1.78686L12.8574 1.47256Z" fill="#5E4C5E"/>
</svg>
