<svg width="12" height="14" viewBox="0 0 12 14" fill="none" xmlns="http://www.w3.org/2000/svg">
<path d="M11.4922 1.11465H0.220154C0.098766 1.11465 0 1.20195 0 1.30925V2.66915C0 2.77645 0.098766 2.86375 0.220154 2.86375H11.4922C11.6136 2.86375 11.7123 2.77645 11.7123 2.66915V1.30925C11.7123 1.20195 11.6136 1.11465 11.4922 1.11465Z" fill="#5E4C5E"/>
<path d="M0.598389 3.06412L1.32384 12.9092C1.33495 13.0593 1.47693 13.1768 1.64715 13.1768H10.0657C10.2359 13.1768 10.378 13.0593 10.389 12.9092L11.1144 3.06412H0.598389ZM3.5192 12.252C3.50627 12.2527 3.49351 12.2531 3.48066 12.2531C3.14499 12.2531 2.86219 12.021 2.84185 11.721L2.35877 4.57167C2.34864 4.4208 2.40538 4.27553 2.51894 4.16238C2.63251 4.04939 2.78889 3.98202 2.95953 3.97313C2.97287 3.97239 2.9858 3.97206 2.99807 3.97206C3.33597 3.97206 3.61662 4.20561 3.63688 4.50414L4.12005 11.6534C4.12087 11.6646 4.12112 11.676 4.12112 11.6872C4.12112 11.9841 3.85882 12.2341 3.5192 12.252ZM6.49642 11.6936C6.49642 12.0054 6.20934 12.2593 5.85629 12.2593C5.50333 12.2593 5.21625 12.0054 5.21625 11.6936V4.53148C5.21625 4.21953 5.50333 3.9658 5.85629 3.9658C6.20934 3.9658 6.49642 4.21953 6.49642 4.53148V11.6936ZM9.35374 4.57167L8.87066 11.721C8.8504 12.021 8.56752 12.2531 8.23193 12.2531C8.21916 12.2531 8.20632 12.2527 8.19331 12.252C7.841 12.2335 7.57154 11.9648 7.59246 11.6534L8.07562 4.50422C8.0958 4.20578 8.37646 3.97214 8.71443 3.97214C8.72671 3.97214 8.73964 3.97247 8.75298 3.97321C8.92369 3.98211 9.08008 4.04947 9.19348 4.16246C9.30705 4.27561 9.36404 4.4208 9.35374 4.57167Z" fill="#5E4C5E"/>
<path d="M8.45862 0.230086C8.3915 0.0902838 8.23709 0 8.06522 0H3.64484C3.47297 0 3.31856 0.0902836 3.25144 0.229921L2.92261 0.913623H8.7877L8.45862 0.230086Z" fill="#5E4C5E"/>
</svg>
