<svg width="115" height="35" viewBox="0 0 115 35" fill="none" xmlns="http://www.w3.org/2000/svg">
<path fill-rule="evenodd" clip-rule="evenodd" d="M6.78689 17C3.77197 17 0 19.0299 0 22.0448V30C0 32.7614 2.23858 35 5 35H86.5379C89.4654 35 91.4344 31.4275 91.4344 28.5V28.5C91.4344 22.1487 96.5832 17 102.934 17H108.214V17C111.229 17 115 14.9704 115 11.9559V5C115 2.23858 112.761 0 110 0H27.9021C25.3183 0 23.5656 2.91617 23.5656 5.5V5.5C23.5656 11.8513 18.4168 17 12.0656 17H6.78689V17Z" fill="#B3B7D3"/>
</svg>
