<svg width="14" height="15" viewBox="0 0 14 15" fill="none" xmlns="http://www.w3.org/2000/svg">
<path d="M6.70685 0.00299542C6.60766 0.000168231 6.50988 0.0269176 6.42594 0.0798387C6.342 0.13276 6.27571 0.209459 6.2355 0.300174C6.19529 0.39089 6.18298 0.491518 6.20014 0.589251C6.2173 0.686984 6.26314 0.777402 6.33185 0.848995C7.2196 1.77455 7.78743 2.96021 7.95206 4.23208C8.11669 5.50395 7.86946 6.7951 7.24662 7.91619C6.62378 9.03727 5.65812 9.92929 4.49125 10.4614C3.32437 10.9936 2.0177 11.1378 0.762851 10.873C0.665906 10.8529 0.565164 10.8619 0.473393 10.8991C0.381623 10.9363 0.302957 10.9999 0.247368 11.0818C0.191779 11.1638 0.161769 11.2604 0.161143 11.3594C0.160517 11.4584 0.189302 11.5554 0.243851 11.638C0.954678 12.7126 1.93034 13.5859 3.07677 14.1738C4.22321 14.7617 5.50177 15.0443 6.78919 14.9945C8.07662 14.9447 9.3295 14.564 10.4271 13.8892C11.5246 13.2145 12.4298 12.2683 13.0555 11.1421C13.6811 10.0158 14.006 8.74729 13.999 7.45892C13.9919 6.17055 13.653 4.90573 13.0151 3.78638C12.3771 2.66702 11.4615 1.73089 10.3566 1.06822C9.25173 0.40555 7.99475 0.0386864 6.70685 0.00299542Z" fill="#5E4C5E"/>
</svg>
