<svg width="600" height="46" viewBox="0 0 600 46" fill="none" xmlns="http://www.w3.org/2000/svg">
<mask id="path-1-inside-1_100_29" fill="white">
<path fill-rule="evenodd" clip-rule="evenodd" d="M1 0C0.447715 0 0 0.447715 0 1V1C0 5.97056 4.02944 10 9 10H68C73.5229 10 78 14.4772 78 20V41V41C78 43.3259 79.5721 46 81.8981 46H590C595.523 46 600 41.5228 600 36V1C600 0.447715 599.552 0 599 0H1Z"/>
</mask>
<path fill-rule="evenodd" clip-rule="evenodd" d="M1 0C0.447715 0 0 0.447715 0 1V1C0 5.97056 4.02944 10 9 10H68C73.5229 10 78 14.4772 78 20V41V41C78 43.3259 79.5721 46 81.8981 46H590C595.523 46 600 41.5228 600 36V1C600 0.447715 599.552 0 599 0H1Z" fill="#F3F2F2" fill-opacity="0.2"/>
<path d="M1 1V1V-1C-0.104569 -1 -1 -0.10457 -1 1H1ZM9 11H68V9H9V11ZM68 11C72.9706 11 77 15.0294 77 20H79C79 13.9249 74.0751 9 68 9V11ZM77 20V41H79V20H77ZM590 45H81.8981V47H590V45ZM599 36C599 40.9706 594.971 45 590 45V47C596.075 47 601 42.0751 601 36H599ZM599 1V36H601V1H599ZM599 1H601C601 -0.104555 600.105 -1 599 -1V1ZM1 1H599V-1H1V1ZM77 41C77 42.3686 77.4565 43.822 78.2625 44.9527C79.0706 46.0863 80.3162 47 81.8981 47V45C81.154 45 80.4506 44.5767 79.8911 43.7918C79.3295 43.004 79 41.9573 79 41H77ZM-1 1C-1 6.52285 3.47715 11 9 11V9C4.58172 9 1 5.41828 1 1H-1Z" fill="url(#paint0_linear_100_29)" mask="url(#path-1-inside-1_100_29)"/>
<defs>
<linearGradient id="paint0_linear_100_29" x1="0" y1="23" x2="600" y2="23" gradientUnits="userSpaceOnUse">
<stop stop-color="#B6B6B6"/>
<stop offset="1" stop-color="#FEE7E7"/>
</linearGradient>
</defs>
</svg>
