<svg width="14" height="14" viewBox="0 0 14 14" fill="none" xmlns="http://www.w3.org/2000/svg">
<path d="M12.4444 7.77778V11.6667C12.4444 12.0944 12.0944 12.4444 11.6667 12.4444H2.33333C1.90556 12.4444 1.55556 12.0944 1.55556 11.6667V7.77778C1.55556 7.35 1.20556 7 0.777778 7C0.35 7 0 7.35 0 7.77778V12.4444C0 13.3 0.7 14 1.55556 14H12.4444C13.3 14 14 13.3 14 12.4444V7.77778C14 7.35 13.65 7 13.2222 7C12.7944 7 12.4444 7.35 12.4444 7.77778ZM7.77778 7.52111L9.24 6.05889C9.31201 5.98688 9.39749 5.92976 9.49158 5.89079C9.58566 5.85182 9.6865 5.83176 9.78833 5.83176C9.89017 5.83176 9.99101 5.85182 10.0851 5.89079C10.1792 5.92976 10.2647 5.98688 10.3367 6.05889C10.4087 6.1309 10.4658 6.21638 10.5048 6.31047C10.5437 6.40455 10.5638 6.50539 10.5638 6.60722C10.5638 6.70906 10.5437 6.8099 10.5048 6.90398C10.4658 6.99806 10.4087 7.08355 10.3367 7.15556L7.54444 9.94778C7.47249 10.0199 7.38702 10.0771 7.29293 10.1161C7.19884 10.1551 7.09798 10.1752 6.99611 10.1752C6.89425 10.1752 6.79338 10.1551 6.69929 10.1161C6.6052 10.0771 6.51973 10.0199 6.44778 9.94778L3.65556 7.15556C3.51013 7.01013 3.42843 6.81289 3.42843 6.60722C3.42843 6.40156 3.51013 6.20432 3.65556 6.05889C3.80098 5.91346 3.99822 5.83176 4.20389 5.83176C4.40955 5.83176 4.60679 5.91346 4.75222 6.05889L6.22222 7.52111V0.777778C6.22222 0.35 6.57222 0 7 0C7.42778 0 7.77778 0.35 7.77778 0.777778V7.52111Z" fill="black" fill-opacity="0.6"/>
</svg>
