<svg width="13" height="13" viewBox="0 0 13 13" fill="none" xmlns="http://www.w3.org/2000/svg">
<path d="M6.20012 2.2V1C6.20012 0.893914 6.24227 0.792172 6.31728 0.717158C6.39229 0.642143 6.49404 0.6 6.60012 0.6C6.70621 0.6 6.80795 0.642143 6.88297 0.717158C6.95798 0.792172 7.00012 0.893914 7.00012 1V2.2C7.00012 2.30609 6.95798 2.40783 6.88297 2.48284C6.80795 2.55786 6.70621 2.6 6.60012 2.6C6.49404 2.6 6.39229 2.55786 6.31728 2.48284C6.24227 2.40783 6.20012 2.30609 6.20012 2.2ZM6.60012 3.4C5.96722 3.4 5.34854 3.58768 4.8223 3.9393C4.29606 4.29092 3.88591 4.79069 3.64371 5.37541C3.40151 5.96014 3.33814 6.60355 3.46161 7.22429C3.58508 7.84503 3.88985 8.41521 4.33738 8.86274C4.78491 9.31027 5.35509 9.61504 5.97583 9.73851C6.59657 9.86199 7.23999 9.79862 7.82471 9.55642C8.40943 9.31421 8.9092 8.90406 9.26083 8.37782C9.61245 7.85159 9.80012 7.2329 9.80012 6.6C9.7992 5.75159 9.46176 4.9382 8.86184 4.33828C8.26193 3.73837 7.44853 3.40093 6.60012 3.4ZM3.11712 3.683C3.19218 3.75806 3.29398 3.80022 3.40012 3.80022C3.50627 3.80022 3.60807 3.75806 3.68312 3.683C3.75818 3.60794 3.80034 3.50615 3.80034 3.4C3.80034 3.29385 3.75818 3.19206 3.68312 3.117L2.88312 2.317C2.80807 2.24194 2.70627 2.19978 2.60012 2.19978C2.49398 2.19978 2.39218 2.24194 2.31712 2.317C2.24207 2.39206 2.1999 2.49385 2.1999 2.6C2.1999 2.70615 2.24207 2.80794 2.31712 2.883L3.11712 3.683ZM3.11712 9.517L2.31712 10.317C2.24207 10.3921 2.1999 10.4939 2.1999 10.6C2.1999 10.7061 2.24207 10.8079 2.31712 10.883C2.39218 10.9581 2.49398 11.0002 2.60012 11.0002C2.70627 11.0002 2.80807 10.9581 2.88312 10.883L3.68312 10.083C3.72029 10.0458 3.74977 10.0017 3.76988 9.95316C3.78999 9.9046 3.80034 9.85256 3.80034 9.8C3.80034 9.74744 3.78999 9.6954 3.76988 9.64684C3.74977 9.59828 3.72029 9.55416 3.68312 9.517C3.64596 9.47984 3.60184 9.45036 3.55328 9.43024C3.50472 9.41013 3.45268 9.39978 3.40012 9.39978C3.34756 9.39978 3.29552 9.41013 3.24696 9.43024C3.19841 9.45036 3.15429 9.47984 3.11712 9.517ZM9.80012 3.8C9.85267 3.80004 9.90471 3.78973 9.95326 3.76965C10.0018 3.74958 10.0459 3.72013 10.0831 3.683L10.8831 2.883C10.9582 2.80794 11.0003 2.70615 11.0003 2.6C11.0003 2.49385 10.9582 2.39206 10.8831 2.317C10.8081 2.24194 10.7063 2.19978 10.6001 2.19978C10.494 2.19978 10.3922 2.24194 10.3171 2.317L9.51712 3.117C9.46112 3.17294 9.42297 3.24424 9.40751 3.32188C9.39205 3.39951 9.39997 3.47999 9.43027 3.55312C9.46058 3.62625 9.51189 3.68874 9.57773 3.73269C9.64357 3.77664 9.72096 3.80006 9.80012 3.8ZM10.0831 9.517C10.0081 9.44194 9.90627 9.39978 9.80012 9.39978C9.69398 9.39978 9.59218 9.44194 9.51712 9.517C9.44207 9.59206 9.3999 9.69385 9.3999 9.8C9.3999 9.90615 9.44207 10.0079 9.51712 10.083L10.3171 10.883C10.3543 10.9202 10.3984 10.9496 10.447 10.9698C10.4955 10.9899 10.5476 11.0002 10.6001 11.0002C10.6527 11.0002 10.7047 10.9899 10.7533 10.9698C10.8018 10.9496 10.846 10.9202 10.8831 10.883C10.9203 10.8458 10.9498 10.8017 10.9699 10.7532C10.99 10.7046 11.0003 10.6526 11.0003 10.6C11.0003 10.5474 10.99 10.4954 10.9699 10.4468C10.9498 10.3983 10.9203 10.3542 10.8831 10.317L10.0831 9.517ZM2.60012 6.6C2.60012 6.49391 2.55798 6.39217 2.48297 6.31716C2.40795 6.24214 2.30621 6.2 2.20012 6.2H1.00012C0.894036 6.2 0.792294 6.24214 0.71728 6.31716C0.642265 6.39217 0.600122 6.49391 0.600122 6.6C0.600122 6.70609 0.642265 6.80783 0.71728 6.88284C0.792294 6.95786 0.894036 7 1.00012 7H2.20012C2.30621 7 2.40795 6.95786 2.48297 6.88284C2.55798 6.80783 2.60012 6.70609 2.60012 6.6ZM6.60012 10.6C6.49404 10.6 6.39229 10.6421 6.31728 10.7172C6.24227 10.7922 6.20012 10.8939 6.20012 11V12.2C6.20012 12.3061 6.24227 12.4078 6.31728 12.4828C6.39229 12.5579 6.49404 12.6 6.60012 12.6C6.70621 12.6 6.80795 12.5579 6.88297 12.4828C6.95798 12.4078 7.00012 12.3061 7.00012 12.2V11C7.00012 10.8939 6.95798 10.7922 6.88297 10.7172C6.80795 10.6421 6.70621 10.6 6.60012 10.6ZM12.2001 6.2H11.0001C10.894 6.2 10.7923 6.24214 10.7173 6.31716C10.6423 6.39217 10.6001 6.49391 10.6001 6.6C10.6001 6.70609 10.6423 6.80783 10.7173 6.88284C10.7923 6.95786 10.894 7 11.0001 7H12.2001C12.3062 7 12.408 6.95786 12.483 6.88284C12.558 6.80783 12.6001 6.70609 12.6001 6.6C12.6001 6.49391 12.558 6.39217 12.483 6.31716C12.408 6.24214 12.3062 6.2 12.2001 6.2Z" fill="#5E4C5E"/>
</svg>
