<svg width="600" height="66" viewBox="0 0 600 66" fill="none" xmlns="http://www.w3.org/2000/svg">
<mask id="path-1-inside-1_100_35" fill="white">
<path fill-rule="evenodd" clip-rule="evenodd" d="M499.442 0C502.175 0 505 6.26671 505 9V9V30C505 35.5228 509.477 40 515 40H590C595.523 40 600 44.4772 600 50V65C600 65.5523 599.552 66 599 66H0.999999C0.447714 66 0 65.5523 0 65V10C0 4.47715 4.47715 0 10 0H499.442Z"/>
</mask>
<path fill-rule="evenodd" clip-rule="evenodd" d="M499.442 0C502.175 0 505 6.26671 505 9V9V30C505 35.5228 509.477 40 515 40H590C595.523 40 600 44.4772 600 50V65C600 65.5523 599.552 66 599 66H0.999999C0.447714 66 0 65.5523 0 65V10C0 4.47715 4.47715 0 10 0H499.442Z" fill="#F3F2F2" fill-opacity="0.2"/>
<path d="M506 30V9H504V30H506ZM515 39C510.029 39 506 34.9706 506 30H504C504 36.0751 508.925 41 515 41V39ZM590 39H515V41H590V39ZM599 50V65H601V50H599ZM599 65V67C600.105 67 601 66.1046 601 65H599ZM599 65H0.999999V67H599V65ZM0.999999 65H1H-1C-1 66.1046 -0.104572 67 0.999999 67V65ZM1 65V10H-1V65H1ZM1 10C1 5.02944 5.02944 1 10 1V-1C3.92487 -1 -1 3.92487 -1 10H1ZM10 1H499.442V-1H10V1ZM590 41C594.971 41 599 45.0294 599 50H601C601 43.9249 596.075 39 590 39V41ZM506 9C506 7.39713 505.211 4.97555 504.123 2.99372C503.57 1.98729 502.905 1.02712 502.16 0.30437C501.434 -0.400288 500.506 -1 499.442 -1V1C499.744 1 500.195 1.18363 500.767 1.73939C501.321 2.27707 501.874 3.05441 502.369 3.95632C503.377 5.79117 504 7.86959 504 9H506Z" fill="url(#paint0_linear_100_35)" mask="url(#path-1-inside-1_100_35)"/>
<defs>
<linearGradient id="paint0_linear_100_35" x1="0" y1="23.5" x2="600" y2="23.5" gradientUnits="userSpaceOnUse">
<stop stop-color="#B6B6B6"/>
<stop offset="1" stop-color="#FEE7E7"/>
</linearGradient>
</defs>
</svg>
